<svg xmlns="http://www.w3.org/2000/svg" xmlns:xlink="http://www.w3.org/1999/xlink" width="600" zoomAndPan="magnify" viewBox="0 0 314.25 80.999996" height="200" preserveAspectRatio="xMidYMid meet" version="1.0"><defs><g/><clipPath id="6a96da9096"><path d="M 271 21 L 293 21 L 293 43 L 271 43 Z M 271 21 " clip-rule="nonzero"/></clipPath><clipPath id="5066221235"><path d="M 267.324219 24.445312 L 282.160156 10.734375 L 302.476562 32.714844 L 287.640625 46.425781 Z M 267.324219 24.445312 " clip-rule="nonzero"/></clipPath><clipPath id="2c3c248f36"><path d="M 267.324219 24.445312 L 282.160156 10.734375 L 302.476562 32.714844 L 287.640625 46.425781 Z M 267.324219 24.445312 " clip-rule="nonzero"/></clipPath><clipPath id="934049f1b0"><path d="M 282 11 L 304 11 L 304 33 L 282 33 Z M 282 11 " clip-rule="nonzero"/></clipPath><clipPath id="3a783afca3"><path d="M 277.972656 14.609375 L 292.804688 0.894531 L 313.121094 22.875 L 298.285156 36.585938 Z M 277.972656 14.609375 " clip-rule="nonzero"/></clipPath><clipPath id="638e47bd99"><path d="M 277.972656 14.609375 L 292.804688 0.894531 L 313.121094 22.875 L 298.285156 36.585938 Z M 277.972656 14.609375 " clip-rule="nonzero"/></clipPath></defs><g clip-path="url(#6a96da9096)"><g clip-path="url(#5066221235)"><g clip-path="url(#2c3c248f36)"><path fill="#ff914d" d="M 292.472656 21.996094 L 274.492188 21.195312 C 271.019531 21.039062 270.433594 27.804688 274.546875 27.917969 L 285.734375 28.222656 L 284.882812 39.480469 C 284.621094 42.90625 291.308594 43.269531 291.496094 39.785156 Z M 292.472656 21.996094 " fill-opacity="1" fill-rule="nonzero"/></g></g></g><g clip-path="url(#934049f1b0)"><g clip-path="url(#3a783afca3)"><g clip-path="url(#638e47bd99)"><path fill="#ff914d" d="M 303.117188 12.15625 L 285.136719 11.355469 C 281.664062 11.203125 281.078125 17.96875 285.191406 18.078125 L 296.378906 18.382812 L 295.527344 29.640625 C 295.265625 33.070312 301.953125 33.429688 302.144531 29.945312 Z M 303.117188 12.15625 " fill-opacity="1" fill-rule="nonzero"/></g></g></g><g fill="#ffffff" fill-opacity="1"><g transform="translate(15.391167, 57.525708)"><g><path d="M 5.96875 -32.203125 C 7.039062 -32.203125 7.898438 -31.695312 8.546875 -30.6875 L 19.109375 -14.15625 L 29.625 -30.734375 C 29.957031 -31.234375 30.367188 -31.601562 30.859375 -31.84375 C 31.347656 -32.082031 31.828125 -32.203125 32.296875 -32.203125 C 33.035156 -32.203125 33.691406 -31.957031 34.265625 -31.46875 C 34.835938 -30.976562 35.125 -30.28125 35.125 -29.375 L 35.125 -2.625 C 35.125 -1.75 34.800781 -1.09375 34.15625 -0.65625 C 33.519531 -0.21875 32.847656 0 32.140625 0 C 31.398438 0 30.734375 -0.21875 30.140625 -0.65625 C 29.554688 -1.09375 29.265625 -1.75 29.265625 -2.625 L 29.265625 -19.65625 L 21.734375 -7.890625 C 21.460938 -7.378906 21.082031 -7.003906 20.59375 -6.765625 C 20.101562 -6.535156 19.609375 -6.421875 19.109375 -6.421875 C 18.597656 -6.421875 18.082031 -6.5625 17.5625 -6.84375 C 17.039062 -7.132812 16.644531 -7.53125 16.375 -8.03125 L 8.953125 -19.609375 L 8.953125 -2.625 C 8.953125 -1.75 8.640625 -1.09375 8.015625 -0.65625 C 7.390625 -0.21875 6.722656 0 6.015625 0 C 5.273438 0 4.597656 -0.21875 3.984375 -0.65625 C 3.378906 -1.09375 3.078125 -1.75 3.078125 -2.625 L 3.078125 -29.3125 C 3.078125 -30.1875 3.375 -30.882812 3.96875 -31.40625 C 4.5625 -31.9375 5.226562 -32.203125 5.96875 -32.203125 Z M 5.96875 -32.203125 "/></g></g></g><g fill="#ffffff" fill-opacity="1"><g transform="translate(54.00324, 57.525708)"><g><path d="M 23.5 -25.734375 C 24.375 -25.734375 25.070312 -25.488281 25.59375 -25 C 26.125 -24.507812 26.390625 -23.875 26.390625 -23.09375 L 26.390625 -2.625 C 26.390625 -1.851562 26.125 -1.222656 25.59375 -0.734375 C 25.070312 -0.242188 24.375 0 23.5 0 C 22.65625 0 22 -0.191406 21.53125 -0.578125 C 21.0625 -0.960938 20.773438 -1.476562 20.671875 -2.125 C 19.523438 -1.21875 18.242188 -0.550781 16.828125 -0.125 C 15.410156 0.289062 14.0625 0.5 12.78125 0.5 C 10.363281 0.5 8.269531 -0.0507812 6.5 -1.15625 C 4.726562 -2.269531 3.367188 -3.835938 2.421875 -5.859375 C 1.484375 -7.878906 1.015625 -10.238281 1.015625 -12.9375 C 1.015625 -15.5625 1.535156 -17.867188 2.578125 -19.859375 C 3.617188 -21.847656 5.070312 -23.40625 6.9375 -24.53125 C 8.8125 -25.664062 10.984375 -26.234375 13.453125 -26.234375 C 14.523438 -26.234375 15.71875 -26.03125 17.03125 -25.625 C 18.34375 -25.21875 19.554688 -24.578125 20.671875 -23.703125 C 20.804688 -24.304688 21.109375 -24.796875 21.578125 -25.171875 C 22.054688 -25.546875 22.695312 -25.734375 23.5 -25.734375 Z M 13.390625 -4.59375 C 14.878906 -4.59375 16.3125 -4.921875 17.6875 -5.578125 C 19.070312 -6.242188 20.050781 -7.210938 20.625 -8.484375 L 20.625 -17.234375 C 19.976562 -18.484375 19.015625 -19.441406 17.734375 -20.109375 C 16.460938 -20.785156 15.164062 -21.125 13.84375 -21.125 C 11.726562 -21.125 10.019531 -20.347656 8.71875 -18.796875 C 7.414062 -17.253906 6.765625 -15.285156 6.765625 -12.890625 C 6.765625 -10.398438 7.367188 -8.394531 8.578125 -6.875 C 9.796875 -5.351562 11.398438 -4.59375 13.390625 -4.59375 Z M 13.390625 -4.59375 "/></g></g></g><g fill="#ffffff" fill-opacity="1"><g transform="translate(83.214959, 57.525708)"><g><path d="M 23.609375 -25.734375 C 24.484375 -25.734375 25.1875 -25.445312 25.71875 -24.875 C 26.257812 -24.300781 26.53125 -23.625 26.53125 -22.84375 L 26.53125 -1.5625 C 26.53125 0.894531 25.957031 2.960938 24.8125 4.640625 C 23.664062 6.328125 22.132812 7.59375 20.21875 8.4375 C 18.300781 9.28125 16.160156 9.703125 13.796875 9.703125 C 11.847656 9.703125 10.078125 9.445312 8.484375 8.9375 C 6.898438 8.4375 5.421875 7.546875 4.046875 6.265625 C 3.367188 5.585938 3.046875 4.894531 3.078125 4.1875 C 3.117188 3.488281 3.390625 2.882812 3.890625 2.375 C 4.398438 1.875 5.015625 1.585938 5.734375 1.515625 C 6.460938 1.453125 7.160156 1.722656 7.828125 2.328125 C 8.878906 3.234375 9.847656 3.820312 10.734375 4.09375 C 11.628906 4.363281 12.648438 4.5 13.796875 4.5 C 15.015625 4.5 16.160156 4.285156 17.234375 3.859375 C 18.316406 3.441406 19.191406 2.773438 19.859375 1.859375 C 20.535156 0.953125 20.875 -0.1875 20.875 -1.5625 L 20.875 -2.015625 C 19.726562 -1.179688 18.476562 -0.550781 17.125 -0.125 C 15.78125 0.289062 14.519531 0.5 13.34375 0.5 C 10.914062 0.5 8.785156 -0.0507812 6.953125 -1.15625 C 5.117188 -2.269531 3.6875 -3.835938 2.65625 -5.859375 C 1.625 -7.878906 1.109375 -10.238281 1.109375 -12.9375 C 1.109375 -15.5625 1.628906 -17.867188 2.671875 -19.859375 C 3.722656 -21.847656 5.179688 -23.40625 7.046875 -24.53125 C 8.921875 -25.664062 11.085938 -26.234375 13.546875 -26.234375 C 14.691406 -26.234375 15.910156 -26.0625 17.203125 -25.71875 C 18.503906 -25.382812 19.726562 -24.796875 20.875 -23.953125 C 21.25 -25.140625 22.160156 -25.734375 23.609375 -25.734375 Z M 13.5 -4.59375 C 15.050781 -4.59375 16.523438 -4.929688 17.921875 -5.609375 C 19.316406 -6.285156 20.285156 -7.296875 20.828125 -8.640625 L 20.828125 -17.078125 C 20.179688 -18.359375 19.207031 -19.351562 17.90625 -20.0625 C 16.613281 -20.769531 15.296875 -21.125 13.953125 -21.125 C 11.828125 -21.125 10.113281 -20.347656 8.8125 -18.796875 C 7.519531 -17.253906 6.875 -15.285156 6.875 -12.890625 C 6.875 -10.398438 7.476562 -8.394531 8.6875 -6.875 C 9.90625 -5.351562 11.507812 -4.59375 13.5 -4.59375 Z M 13.5 -4.59375 "/></g></g></g><g fill="#ffffff" fill-opacity="1"><g transform="translate(112.527761, 57.525708)"><g><path d="M 23.5625 -32.703125 C 24.257812 -32.703125 24.921875 -32.5 25.546875 -32.09375 C 26.171875 -31.6875 26.484375 -31.046875 26.484375 -30.171875 L 26.484375 -2.578125 C 26.484375 -0.859375 25.507812 0 23.5625 0 C 21.800781 0 20.890625 -0.804688 20.828125 -2.421875 C 19.742188 -1.484375 18.53125 -0.769531 17.1875 -0.28125 C 15.84375 0.207031 14.5625 0.453125 13.34375 0.453125 C 10.8125 0.453125 8.628906 -0.117188 6.796875 -1.265625 C 4.960938 -2.410156 3.554688 -4.007812 2.578125 -6.0625 C 1.597656 -8.125 1.109375 -10.484375 1.109375 -13.140625 C 1.109375 -15.703125 1.628906 -17.957031 2.671875 -19.90625 C 3.722656 -21.863281 5.179688 -23.40625 7.046875 -24.53125 C 8.921875 -25.664062 11.085938 -26.234375 13.546875 -26.234375 C 14.660156 -26.234375 15.859375 -26.015625 17.140625 -25.578125 C 18.421875 -25.140625 19.613281 -24.484375 20.71875 -23.609375 L 20.71875 -30.171875 C 20.71875 -31.046875 21.015625 -31.6875 21.609375 -32.09375 C 22.203125 -32.5 22.851562 -32.703125 23.5625 -32.703125 Z M 13.5 -4.65625 C 15.175781 -4.65625 16.695312 -5.03125 18.0625 -5.78125 C 19.4375 -6.539062 20.359375 -7.644531 20.828125 -9.09375 L 20.78125 -16.875 C 20.207031 -18.257812 19.269531 -19.3125 17.96875 -20.03125 C 16.664062 -20.757812 15.328125 -21.125 13.953125 -21.125 C 11.828125 -21.125 10.113281 -20.359375 8.8125 -18.828125 C 7.519531 -17.296875 6.875 -15.382812 6.875 -13.09375 C 6.875 -10.632812 7.476562 -8.613281 8.6875 -7.03125 C 9.90625 -5.445312 11.507812 -4.65625 13.5 -4.65625 Z M 13.5 -4.65625 "/></g></g></g><g fill="#ffffff" fill-opacity="1"><g transform="translate(141.790022, 57.525708)"><g><path d="M 23.5 -25.734375 C 24.375 -25.734375 25.070312 -25.488281 25.59375 -25 C 26.125 -24.507812 26.390625 -23.875 26.390625 -23.09375 L 26.390625 -2.625 C 26.390625 -1.851562 26.125 -1.222656 25.59375 -0.734375 C 25.070312 -0.242188 24.375 0 23.5 0 C 22.65625 0 22 -0.191406 21.53125 -0.578125 C 21.0625 -0.960938 20.773438 -1.476562 20.671875 -2.125 C 19.523438 -1.21875 18.242188 -0.550781 16.828125 -0.125 C 15.410156 0.289062 14.0625 0.5 12.78125 0.5 C 10.363281 0.5 8.269531 -0.0507812 6.5 -1.15625 C 4.726562 -2.269531 3.367188 -3.835938 2.421875 -5.859375 C 1.484375 -7.878906 1.015625 -10.238281 1.015625 -12.9375 C 1.015625 -15.5625 1.535156 -17.867188 2.578125 -19.859375 C 3.617188 -21.847656 5.070312 -23.40625 6.9375 -24.53125 C 8.8125 -25.664062 10.984375 -26.234375 13.453125 -26.234375 C 14.523438 -26.234375 15.71875 -26.03125 17.03125 -25.625 C 18.34375 -25.21875 19.554688 -24.578125 20.671875 -23.703125 C 20.804688 -24.304688 21.109375 -24.796875 21.578125 -25.171875 C 22.054688 -25.546875 22.695312 -25.734375 23.5 -25.734375 Z M 13.390625 -4.59375 C 14.878906 -4.59375 16.3125 -4.921875 17.6875 -5.578125 C 19.070312 -6.242188 20.050781 -7.210938 20.625 -8.484375 L 20.625 -17.234375 C 19.976562 -18.484375 19.015625 -19.441406 17.734375 -20.109375 C 16.460938 -20.785156 15.164062 -21.125 13.84375 -21.125 C 11.726562 -21.125 10.019531 -20.347656 8.71875 -18.796875 C 7.414062 -17.253906 6.765625 -15.285156 6.765625 -12.890625 C 6.765625 -10.398438 7.367188 -8.394531 8.578125 -6.875 C 9.796875 -5.351562 11.398438 -4.59375 13.390625 -4.59375 Z M 13.390625 -4.59375 "/></g></g></g><g fill="#ffffff" fill-opacity="1"><g transform="translate(171.00174, 57.525708)"><g><path d="M 7.53125 -2.53125 C 7.53125 -1.851562 7.25 -1.257812 6.6875 -0.75 C 6.132812 -0.25 5.457031 0 4.65625 0 C 3.8125 0 3.117188 -0.25 2.578125 -0.75 C 2.035156 -1.257812 1.765625 -1.851562 1.765625 -2.53125 L 1.765625 -30.171875 C 1.765625 -30.847656 2.035156 -31.4375 2.578125 -31.9375 C 3.117188 -32.445312 3.8125 -32.703125 4.65625 -32.703125 C 5.457031 -32.703125 6.132812 -32.445312 6.6875 -31.9375 C 7.25 -31.4375 7.53125 -30.847656 7.53125 -30.171875 Z M 7.53125 -2.53125 "/></g></g></g><g fill="#ffffff" fill-opacity="1"><g transform="translate(179.290106, 57.525708)"><g><path d="M 14.453125 -4.5 C 15.429688 -4.5 16.390625 -4.632812 17.328125 -4.90625 C 18.273438 -5.175781 19.15625 -5.628906 19.96875 -6.265625 C 20.738281 -6.972656 21.492188 -7.300781 22.234375 -7.25 C 22.984375 -7.195312 23.597656 -6.925781 24.078125 -6.4375 C 24.566406 -5.957031 24.8125 -5.351562 24.8125 -4.625 C 24.8125 -3.894531 24.457031 -3.195312 23.75 -2.53125 C 22.570312 -1.382812 21.175781 -0.582031 19.5625 -0.125 C 17.945312 0.332031 16.296875 0.539062 14.609375 0.5 C 11.984375 0.5 9.664062 -0.0351562 7.65625 -1.109375 C 5.65625 -2.191406 4.085938 -3.691406 2.953125 -5.609375 C 1.828125 -7.523438 1.265625 -9.75 1.265625 -12.28125 C 1.265625 -15.039062 1.800781 -17.46875 2.875 -19.5625 C 3.957031 -21.65625 5.484375 -23.289062 7.453125 -24.46875 C 9.421875 -25.644531 11.753906 -26.234375 14.453125 -26.234375 C 17.148438 -26.234375 19.441406 -25.6875 21.328125 -24.59375 C 23.210938 -23.5 24.648438 -21.960938 25.640625 -19.984375 C 26.640625 -18.015625 27.140625 -15.71875 27.140625 -13.09375 C 27.140625 -12.25 26.96875 -11.53125 26.625 -10.9375 C 26.289062 -10.351562 25.398438 -10.0625 23.953125 -10.0625 L 7.125 -10.0625 C 7.59375 -8.40625 8.484375 -7.0625 9.796875 -6.03125 C 11.117188 -5.007812 12.671875 -4.5 14.453125 -4.5 Z M 14.5 -21.234375 C 12.550781 -21.234375 10.914062 -20.617188 9.59375 -19.390625 C 8.28125 -18.160156 7.441406 -16.550781 7.078125 -14.5625 L 21.78125 -14.5625 C 21.613281 -16.550781 20.957031 -18.160156 19.8125 -19.390625 C 18.664062 -20.617188 16.894531 -21.234375 14.5 -21.234375 Z M 14.5 -21.234375 "/></g></g></g><g fill="#ffffff" fill-opacity="1"><g transform="translate(208.65344, 57.525708)"><g><path d="M 17.03125 -26.234375 C 19.394531 -26.234375 21.398438 -25.71875 23.046875 -24.6875 C 24.703125 -23.664062 25.96875 -22.242188 26.84375 -20.421875 C 27.71875 -18.597656 28.15625 -16.472656 28.15625 -14.046875 L 28.15625 -2.625 C 28.15625 -1.851562 27.898438 -1.222656 27.390625 -0.734375 C 26.890625 -0.242188 26.1875 0 25.28125 0 C 24.4375 0 23.742188 -0.242188 23.203125 -0.734375 C 22.660156 -1.222656 22.390625 -1.851562 22.390625 -2.625 L 22.390625 -14.15625 C 22.390625 -16.238281 21.890625 -17.925781 20.890625 -19.21875 C 19.898438 -20.519531 18.328125 -21.171875 16.171875 -21.171875 C 15.535156 -21.171875 14.769531 -20.992188 13.875 -20.640625 C 12.976562 -20.296875 12.097656 -19.769531 11.234375 -19.0625 C 10.378906 -18.351562 9.675781 -17.457031 9.125 -16.375 C 8.570312 -15.300781 8.296875 -14.019531 8.296875 -12.53125 L 8.296875 -2.578125 C 8.296875 -0.859375 7.367188 0 5.515625 0 C 4.640625 0 3.921875 -0.222656 3.359375 -0.671875 C 2.804688 -1.128906 2.53125 -1.765625 2.53125 -2.578125 L 2.53125 -23.15625 C 2.53125 -24 2.820312 -24.640625 3.40625 -25.078125 C 4 -25.515625 4.664062 -25.734375 5.40625 -25.734375 C 6.113281 -25.734375 6.769531 -25.515625 7.375 -25.078125 C 7.988281 -24.640625 8.296875 -24.03125 8.296875 -23.25 L 8.296875 -22.890625 C 9.742188 -24.242188 11.238281 -25.140625 12.78125 -25.578125 C 14.332031 -26.015625 15.75 -26.234375 17.03125 -26.234375 Z M 17.03125 -26.234375 "/></g></g></g><g fill="#ffffff" fill-opacity="1"><g transform="translate(239.330817, 57.525708)"><g><path d="M 14.453125 -4.5 C 15.429688 -4.5 16.390625 -4.632812 17.328125 -4.90625 C 18.273438 -5.175781 19.15625 -5.628906 19.96875 -6.265625 C 20.738281 -6.972656 21.492188 -7.300781 22.234375 -7.25 C 22.984375 -7.195312 23.597656 -6.925781 24.078125 -6.4375 C 24.566406 -5.957031 24.8125 -5.351562 24.8125 -4.625 C 24.8125 -3.894531 24.457031 -3.195312 23.75 -2.53125 C 22.570312 -1.382812 21.175781 -0.582031 19.5625 -0.125 C 17.945312 0.332031 16.296875 0.539062 14.609375 0.5 C 11.984375 0.5 9.664062 -0.0351562 7.65625 -1.109375 C 5.65625 -2.191406 4.085938 -3.691406 2.953125 -5.609375 C 1.828125 -7.523438 1.265625 -9.75 1.265625 -12.28125 C 1.265625 -15.039062 1.800781 -17.46875 2.875 -19.5625 C 3.957031 -21.65625 5.484375 -23.289062 7.453125 -24.46875 C 9.421875 -25.644531 11.753906 -26.234375 14.453125 -26.234375 C 17.148438 -26.234375 19.441406 -25.6875 21.328125 -24.59375 C 23.210938 -23.5 24.648438 -21.960938 25.640625 -19.984375 C 26.640625 -18.015625 27.140625 -15.71875 27.140625 -13.09375 C 27.140625 -12.25 26.96875 -11.53125 26.625 -10.9375 C 26.289062 -10.351562 25.398438 -10.0625 23.953125 -10.0625 L 7.125 -10.0625 C 7.59375 -8.40625 8.484375 -7.0625 9.796875 -6.03125 C 11.117188 -5.007812 12.671875 -4.5 14.453125 -4.5 Z M 14.5 -21.234375 C 12.550781 -21.234375 10.914062 -20.617188 9.59375 -19.390625 C 8.28125 -18.160156 7.441406 -16.550781 7.078125 -14.5625 L 21.78125 -14.5625 C 21.613281 -16.550781 20.957031 -18.160156 19.8125 -19.390625 C 18.664062 -20.617188 16.894531 -21.234375 14.5 -21.234375 Z M 14.5 -21.234375 "/></g></g></g><g fill="#ffffff" fill-opacity="1"><g transform="translate(268.694139, 57.525708)"><g><path d="M 3.640625 -5.40625 C 4.617188 -5.40625 5.398438 -5.125 5.984375 -4.5625 C 6.578125 -4.007812 6.875 -3.296875 6.875 -2.421875 C 6.875 -1.578125 6.578125 -0.878906 5.984375 -0.328125 C 5.398438 0.222656 4.617188 0.5 3.640625 0.5 C 2.691406 0.5 1.894531 0.222656 1.25 -0.328125 C 0.613281 -0.878906 0.296875 -1.578125 0.296875 -2.421875 C 0.296875 -3.296875 0.613281 -4.007812 1.25 -4.5625 C 1.894531 -5.125 2.691406 -5.40625 3.640625 -5.40625 Z M 3.640625 -5.40625 "/></g></g></g></svg>
